<svg width="25" height="25" viewBox="0 0 25 25" fill="none" xmlns="http://www.w3.org/2000/svg">
<g clip-path="url(#clip0_3_96)">
<path d="M12.5001 25.0001C19.4036 25.0001 25.0001 19.4036 25.0001 12.5001C25.0001 5.59649 19.4036 4.57764e-05 12.5001 4.57764e-05C5.5965 4.57764e-05 6.10352e-05 5.59649 6.10352e-05 12.5001C6.10352e-05 19.4036 5.5965 25.0001 12.5001 25.0001Z" fill="#3C5A9A"/>
<path d="M16.5644 3.8369H13.7954C12.1521 3.8369 10.3244 4.52803 10.3244 6.90999C10.3324 7.73995 10.3244 8.53482 10.3244 9.42939H8.42334V12.4545H10.3832V21.1632H13.9845V12.397H16.3615L16.5766 9.4209H13.9225C13.9225 9.4209 13.9284 8.097 13.9225 7.71253C13.9225 6.77124 14.9019 6.82514 14.9608 6.82514C15.4269 6.82514 16.3332 6.8265 16.5658 6.82514V3.8369H16.5644Z" fill="white"/>
</g>
<defs>
<clipPath id="clip0_3_96">
<rect width="25" height="25" fill="white"/>
</clipPath>
</defs>
</svg>
