<svg width="25" height="25" viewBox="0 0 25 25" fill="none" xmlns="http://www.w3.org/2000/svg">
<g clip-path="url(#clip0_3_89)">
<path d="M24.3919 12.7339C24.3919 11.7096 24.3088 10.9622 24.1292 10.1871H12.4454V14.81H19.3035C19.1653 15.9589 18.4186 17.689 16.7594 18.8516L16.7361 19.0064L20.4303 21.8712L20.6862 21.8967C23.0368 19.7236 24.3919 16.5263 24.3919 12.7339Z" fill="#4285F4"/>
<path d="M12.4455 24.9141C15.8054 24.9141 18.626 23.8068 20.6863 21.8968L16.7594 18.8516C15.7086 19.5852 14.2982 20.0973 12.4455 20.0973C9.15469 20.0973 6.36168 17.9243 5.36604 14.9208L5.22011 14.9332L1.37885 17.9091L1.32861 18.0489C3.37497 22.1181 7.57836 24.9141 12.4455 24.9141Z" fill="#34A853"/>
<path d="M5.36612 14.9208C5.10341 14.1457 4.95138 13.3152 4.95138 12.457C4.95138 11.5988 5.10341 10.7684 5.3523 9.99331L5.34534 9.82823L1.45595 6.80457L1.32869 6.86516C0.485289 8.5538 0.00134277 10.4501 0.00134277 12.457C0.00134277 14.464 0.485289 16.3602 1.32869 18.0488L5.36612 14.9208Z" fill="#FBBC05"/>
<path d="M12.4455 4.81673C14.7822 4.81673 16.3584 5.82713 17.2572 6.6715L20.7692 3.23887C18.6123 1.2319 15.8053 3.05176e-05 12.4455 3.05176e-05C7.57835 3.05176e-05 3.37497 2.79593 1.32861 6.8652L5.35222 9.99335C6.36167 6.98982 9.15468 4.81673 12.4455 4.81673Z" fill="#EB4335"/>
</g>
<defs>
<clipPath id="clip0_3_89">
<rect width="24.4048" height="25" fill="white"/>
</clipPath>
</defs>
</svg>
